<svg xmlns="http://www.w3.org/2000/svg" xmlns:xlink="http://www.w3.org/1999/xlink" width="500" zoomAndPan="magnify" viewBox="0 0 375 374.999991" height="500" preserveAspectRatio="xMidYMid meet" version="1.2"><defs/><g id="38b857beb3"><g style="fill:#ffffff;fill-opacity:1;"><g transform="translate(79.612835, 235.477714)"><path style="stroke:none" d="M 13.34375 1.34375 C 8.644531 1.34375 5.171875 -0.203125 2.921875 -3.296875 C 0.671875 -6.398438 -0.453125 -10.25 -0.453125 -14.84375 C -0.453125 -23.144531 0.992188 -30.070312 3.890625 -35.625 C 6.796875 -41.175781 10.625 -45.722656 15.375 -49.265625 C 20.125 -52.816406 25.347656 -55.71875 31.046875 -57.96875 C 36.742188 -60.21875 42.441406 -62.09375 48.140625 -63.59375 C 53.847656 -65.09375 59.078125 -66.566406 63.828125 -68.015625 C 68.578125 -69.472656 72.398438 -71.222656 75.296875 -73.265625 C 78.203125 -75.316406 79.65625 -77.992188 79.65625 -81.296875 C 79.65625 -83.097656 78.90625 -84 77.40625 -84 C 76.695312 -84 75.992188 -83.597656 75.296875 -82.796875 C 74.597656 -81.992188 73.695312 -81.09375 72.59375 -80.09375 C 71.5 -79.09375 70 -78.191406 68.09375 -77.390625 C 66.195312 -76.597656 63.648438 -76.203125 60.453125 -76.203125 C 57.546875 -76.203125 54.71875 -76.550781 51.96875 -77.25 C 49.21875 -77.945312 46.46875 -78.644531 43.71875 -79.34375 C 40.96875 -80.050781 38.09375 -80.40625 35.09375 -80.40625 C 32.894531 -80.40625 31.242188 -79.878906 30.140625 -78.828125 C 29.046875 -77.773438 28.5 -76.5 28.5 -75 C 28.5 -73.195312 28.875 -72.09375 29.625 -71.6875 C 30.375 -71.289062 30.75 -70.492188 30.75 -69.296875 C 30.75 -68.296875 30.25 -67.320312 29.25 -66.375 C 28.25 -65.425781 26.648438 -64.953125 24.453125 -64.953125 C 20.148438 -64.953125 16.75 -66.675781 14.25 -70.125 C 11.75 -73.570312 10.5 -77.597656 10.5 -82.203125 C 10.5 -87.398438 11.847656 -92.273438 14.546875 -96.828125 C 17.242188 -101.378906 21.066406 -105.078125 26.015625 -107.921875 C 30.972656 -110.773438 36.800781 -112.203125 43.5 -112.203125 C 47.894531 -112.203125 52.269531 -111.550781 56.625 -110.25 C 60.976562 -108.945312 65.175781 -107.644531 69.21875 -106.34375 C 73.269531 -105.050781 77.144531 -104.40625 80.84375 -104.40625 C 83.644531 -104.40625 85.59375 -104.800781 86.6875 -105.59375 C 87.789062 -106.394531 88.539062 -107.296875 88.9375 -108.296875 C 89.34375 -109.296875 89.820312 -110.195312 90.375 -111 C 90.925781 -111.800781 92.050781 -112.203125 93.75 -112.203125 C 96.75 -112.203125 98.722656 -110.722656 99.671875 -107.765625 C 100.617188 -104.816406 101.09375 -100.945312 101.09375 -96.15625 C 101.09375 -88.851562 99.742188 -82.675781 97.046875 -77.625 C 94.347656 -72.570312 90.796875 -68.320312 86.390625 -64.875 C 81.992188 -61.425781 77.171875 -58.550781 71.921875 -56.25 C 66.671875 -53.945312 61.421875 -51.992188 56.171875 -50.390625 C 50.921875 -48.796875 46.09375 -47.273438 41.6875 -45.828125 C 37.289062 -44.378906 33.742188 -42.800781 31.046875 -41.09375 C 28.347656 -39.394531 27 -37.296875 27 -34.796875 C 27 -33.898438 27.421875 -33.328125 28.265625 -33.078125 C 29.117188 -32.828125 29.894531 -33.101562 30.59375 -33.90625 C 32.59375 -36.5 34.84375 -38.445312 37.34375 -39.75 C 39.84375 -41.050781 43.59375 -41.703125 48.59375 -41.703125 C 51.894531 -41.703125 54.71875 -41.347656 57.0625 -40.640625 C 59.414062 -39.941406 61.617188 -39.144531 63.671875 -38.25 C 65.722656 -37.351562 67.898438 -36.550781 70.203125 -35.84375 C 72.503906 -35.144531 75.15625 -34.796875 78.15625 -34.796875 C 81.65625 -34.796875 84.78125 -35.242188 87.53125 -36.140625 C 90.28125 -37.046875 92.453125 -38.695312 94.046875 -41.09375 C 94.847656 -42.300781 95.898438 -42.726562 97.203125 -42.375 C 98.503906 -42.019531 99.578125 -41.34375 100.421875 -40.34375 C 101.273438 -39.34375 101.398438 -38.34375 100.796875 -37.34375 C 99.796875 -35.644531 98.519531 -33.269531 96.96875 -30.21875 C 95.425781 -27.175781 93.578125 -23.925781 91.421875 -20.46875 C 89.273438 -17.019531 86.75 -13.71875 83.84375 -10.5625 C 80.945312 -7.414062 77.695312 -4.84375 74.09375 -2.84375 C 70.5 -0.84375 66.453125 0.15625 61.953125 0.15625 C 56.453125 0.15625 52.050781 -0.519531 48.75 -1.875 C 45.445312 -3.226562 42.820312 -4.925781 40.875 -6.96875 C 38.925781 -9.019531 37.300781 -11.070312 36 -13.125 C 34.695312 -15.175781 33.34375 -16.875 31.9375 -18.21875 C 30.539062 -19.570312 28.644531 -20.25 26.25 -20.25 C 24.445312 -20.25 23.242188 -19.75 22.640625 -18.75 C 22.046875 -17.75 21.75 -16.847656 21.75 -16.046875 C 21.75 -14.953125 22 -14.078125 22.5 -13.421875 C 23 -12.773438 23.523438 -12.050781 24.078125 -11.25 C 24.628906 -10.445312 24.90625 -9.296875 24.90625 -7.796875 C 24.90625 -5.597656 23.976562 -3.523438 22.125 -1.578125 C 20.269531 0.367188 17.34375 1.34375 13.34375 1.34375 Z M 13.34375 1.34375 "/></g></g><g style="fill:#ffffff;fill-opacity:1;"><g transform="translate(166.35925, 237.202976)"><path style="stroke:none" d="M 28.203125 0 C 22.203125 0 17.273438 -1.347656 13.421875 -4.046875 C 9.578125 -6.742188 6.726562 -10.316406 4.875 -14.765625 C 3.019531 -19.222656 2.117188 -24.125 2.171875 -29.46875 C 2.222656 -34.820312 3.148438 -40.171875 4.953125 -45.515625 C 6.753906 -50.867188 9.351562 -55.769531 12.75 -60.21875 C 16.144531 -64.675781 20.269531 -68.253906 25.125 -70.953125 C 29.976562 -73.648438 35.453125 -75 41.546875 -75 C 46.242188 -75 50.066406 -74.125 53.015625 -72.375 C 55.972656 -70.625 58.148438 -68.296875 59.546875 -65.390625 C 60.953125 -62.492188 61.65625 -59.394531 61.65625 -56.09375 C 61.65625 -52.5 60.65625 -48.898438 58.65625 -45.296875 C 56.65625 -41.703125 53.851562 -38.726562 50.25 -36.375 C 46.644531 -34.019531 42.394531 -32.84375 37.5 -32.84375 C 35.394531 -32.84375 33.34375 -32.992188 31.34375 -33.296875 C 29.34375 -33.597656 27.492188 -34.25 25.796875 -35.25 C 25.296875 -35.550781 24.742188 -35.578125 24.140625 -35.328125 C 23.546875 -35.078125 23.25 -34.453125 23.25 -33.453125 C 23.25 -30.847656 24.773438 -28.867188 27.828125 -27.515625 C 30.878906 -26.171875 34.550781 -25.5 38.84375 -25.5 C 43.945312 -25.5 49.222656 -26.796875 54.671875 -29.390625 C 60.117188 -31.992188 64.546875 -35.894531 67.953125 -41.09375 C 68.753906 -42.300781 69.800781 -42.726562 71.09375 -42.375 C 72.394531 -42.019531 73.46875 -41.34375 74.3125 -40.34375 C 75.164062 -39.34375 75.296875 -38.34375 74.703125 -37.34375 C 68.097656 -25.144531 60.867188 -15.867188 53.015625 -9.515625 C 45.171875 -3.171875 36.898438 0 28.203125 0 Z M 33.59375 -44.09375 C 36.5 -44.09375 38.773438 -45.019531 40.421875 -46.875 C 42.078125 -48.726562 42.90625 -50.601562 42.90625 -52.5 C 42.90625 -54.195312 42.328125 -55.644531 41.171875 -56.84375 C 40.023438 -58.050781 38.300781 -58.65625 36 -58.65625 C 33.101562 -58.65625 30.800781 -57.753906 29.09375 -55.953125 C 27.394531 -54.148438 26.546875 -52.25 26.546875 -50.25 C 26.546875 -48.644531 27.117188 -47.21875 28.265625 -45.96875 C 29.421875 -44.71875 31.195312 -44.09375 33.59375 -44.09375 Z M 33.59375 -44.09375 "/></g></g><g style="fill:#ffffff;fill-opacity:1;"><g transform="translate(230.857305, 237.202976)"><path style="stroke:none" d="M 28.203125 0 C 22.203125 0 17.273438 -1.347656 13.421875 -4.046875 C 9.578125 -6.742188 6.726562 -10.316406 4.875 -14.765625 C 3.019531 -19.222656 2.117188 -24.125 2.171875 -29.46875 C 2.222656 -34.820312 3.148438 -40.171875 4.953125 -45.515625 C 6.753906 -50.867188 9.351562 -55.769531 12.75 -60.21875 C 16.144531 -64.675781 20.269531 -68.253906 25.125 -70.953125 C 29.976562 -73.648438 35.453125 -75 41.546875 -75 C 46.242188 -75 50.066406 -74.125 53.015625 -72.375 C 55.972656 -70.625 58.148438 -68.296875 59.546875 -65.390625 C 60.953125 -62.492188 61.65625 -59.394531 61.65625 -56.09375 C 61.65625 -52.5 60.65625 -48.898438 58.65625 -45.296875 C 56.65625 -41.703125 53.851562 -38.726562 50.25 -36.375 C 46.644531 -34.019531 42.394531 -32.84375 37.5 -32.84375 C 35.394531 -32.84375 33.34375 -32.992188 31.34375 -33.296875 C 29.34375 -33.597656 27.492188 -34.25 25.796875 -35.25 C 25.296875 -35.550781 24.742188 -35.578125 24.140625 -35.328125 C 23.546875 -35.078125 23.25 -34.453125 23.25 -33.453125 C 23.25 -30.847656 24.773438 -28.867188 27.828125 -27.515625 C 30.878906 -26.171875 34.550781 -25.5 38.84375 -25.5 C 43.945312 -25.5 49.222656 -26.796875 54.671875 -29.390625 C 60.117188 -31.992188 64.546875 -35.894531 67.953125 -41.09375 C 68.753906 -42.300781 69.800781 -42.726562 71.09375 -42.375 C 72.394531 -42.019531 73.46875 -41.34375 74.3125 -40.34375 C 75.164062 -39.34375 75.296875 -38.34375 74.703125 -37.34375 C 68.097656 -25.144531 60.867188 -15.867188 53.015625 -9.515625 C 45.171875 -3.171875 36.898438 0 28.203125 0 Z M 33.59375 -44.09375 C 36.5 -44.09375 38.773438 -45.019531 40.421875 -46.875 C 42.078125 -48.726562 42.90625 -50.601562 42.90625 -52.5 C 42.90625 -54.195312 42.328125 -55.644531 41.171875 -56.84375 C 40.023438 -58.050781 38.300781 -58.65625 36 -58.65625 C 33.101562 -58.65625 30.800781 -57.753906 29.09375 -55.953125 C 27.394531 -54.148438 26.546875 -52.25 26.546875 -50.25 C 26.546875 -48.644531 27.117188 -47.21875 28.265625 -45.96875 C 29.421875 -44.71875 31.195312 -44.09375 33.59375 -44.09375 Z M 33.59375 -44.09375 "/></g></g></g></svg>